<?xml version="1.0" encoding="UTF-8" standalone="no"?>
<!-- Created with Inkscape (http://www.inkscape.org/) -->

<svg
   width="240mm"
   height="120mm"
   viewBox="0 0 240 120"
   version="1.1"
   id="svg8"
   inkscape:version="1.3.2 (091e20ef0f, 2023-11-25, custom)"
   sodipodi:docname="memory_visual.svg"
   xmlns:inkscape="http://www.inkscape.org/namespaces/inkscape"
   xmlns:sodipodi="http://sodipodi.sourceforge.net/DTD/sodipodi-0.dtd"
   xmlns="http://www.w3.org/2000/svg"
   xmlns:svg="http://www.w3.org/2000/svg"
   xmlns:rdf="http://www.w3.org/1999/02/22-rdf-syntax-ns#"
   xmlns:cc="http://creativecommons.org/ns#"
   xmlns:dc="http://purl.org/dc/elements/1.1/">
  <defs
     id="defs2">
    <inkscape:path-effect
       effect="spiro"
       id="path-effect1"
       is_visible="true"
       lpeversion="1" />
  </defs>
  <sodipodi:namedview
     id="base"
     pagecolor="#ffffff"
     bordercolor="#666666"
     borderopacity="1.0"
     inkscape:pageopacity="0.0"
     inkscape:pageshadow="2"
     inkscape:zoom="1.4797825"
     inkscape:cx="453.78289"
     inkscape:cy="193.27164"
     inkscape:document-units="mm"
     inkscape:current-layer="layer1"
     showgrid="false"
     showborder="true"
     width="200mm"
     showguides="true"
     inkscape:guide-bbox="true"
     inkscape:window-width="1910"
     inkscape:window-height="1160"
     inkscape:window-x="5"
     inkscape:window-y="35"
     inkscape:window-maximized="1"
     inkscape:showpageshadow="2"
     inkscape:pagecheckerboard="0"
     inkscape:deskcolor="#d1d1d1">
    <inkscape:grid
       type="xygrid"
       id="grid815"
       units="mm"
       spacingx="10"
       spacingy="10"
       empspacing="4"
       dotted="false"
       originx="0"
       originy="0"
       visible="false" />
  </sodipodi:namedview>
  <metadata
     id="metadata5">
    <rdf:RDF>
      <cc:Work
         rdf:about="">
        <dc:format>image/svg+xml</dc:format>
        <dc:type
           rdf:resource="http://purl.org/dc/dcmitype/StillImage" />
        <dc:title />
      </cc:Work>
    </rdf:RDF>
  </metadata>
  <g
     inkscape:label="Layer 1"
     inkscape:groupmode="layer"
     id="layer1"
     transform="translate(0,-177)">
    <path
       style="fill:none;stroke:#000000;stroke-width:0.264583"
       d="m 47.661578,254.89299 c 1.999451,-6.80167 6.07211,-12.97881 11.535669,-17.49655 5.46356,-4.51774 12.295732,-7.35765 19.351897,-8.04394 3.951574,-0.38434 8.027016,-0.0917 11.720092,1.36564 3.693076,1.45733 6.978214,4.15701 8.67564,7.74608 1.687364,3.56779 1.709754,7.65693 2.023694,11.59111 0.15697,1.96708 0.39694,3.93962 0.96689,5.82886 0.56995,1.88924 1.48561,3.7025 2.85836,5.12011 1.34639,1.39039 3.09873,2.35873 4.96024,2.88858 1.86151,0.52985 3.82985,0.63224 5.75505,0.43336 3.85041,-0.39776 7.47202,-1.96524 10.9879,-3.58464 3.49777,-1.61106 6.9778,-3.30176 10.1587,-5.47243 3.18089,-2.17068 6.07077,-4.84874 8.089,-8.12846 2.01824,-3.27973 3.12016,-7.19824 2.65217,-11.02066 -0.234,-1.91121 -0.858,-3.78 -1.87015,-5.418 -1.01215,-1.63799 -2.41558,-3.04058 -4.08429,-4.00125 -2.77306,-1.59645 -6.22601,-1.89833 -9.2819,-0.94964 -3.05589,0.94868 -5.69247,3.10255 -7.36452,5.83069 -1.67205,2.72813 -2.39387,6.00014 -2.1807,9.1928 0.21316,3.19265 1.34043,6.2993 3.09331,8.97622 1.95967,2.99273 4.69129,5.45607 7.80442,7.21822 3.11312,1.76215 6.60051,2.83123 10.15256,3.25506 7.10412,0.84764 14.33981,-0.87837 20.82826,-3.89282 7.49943,-3.48414 14.18599,-8.70396 19.38604,-15.13359"
       id="path1"
       inkscape:path-effect="#path-effect1"
       inkscape:original-d="m 47.661578,254.89299 c 5.828506,-16.39935 12.935937,-25.17269 30.887566,-25.54049 7.903554,-0.16193 16.026625,1.66604 20.395732,9.11172 2.281984,3.88889 1.426594,21.43636 5.848944,22.54008 5.26764,1.31468 17.03952,2.12345 21.70319,-0.2627 6.33763,-3.24262 20.96,-25.59374 14.94543,-34.0408 -10.31345,-14.48454 -33.06662,13.40877 -15.73381,23.05007 7.63703,4.24808 30.3955,10.53679 38.78524,6.58046 7.26886,-3.42775 11.44261,-12.74379 19.38604,-15.13359" />
  </g>
</svg>
