<?xml version="1.0" encoding="UTF-8" standalone="no"?>
<!-- Created with Inkscape (http://www.inkscape.org/) -->

<svg
   width="297mm"
   height="210mm"
   viewBox="0 0 297 210"
   version="1.1"
   id="svg1"
   inkscape:version="1.3.2 (091e20ef0f, 2023-11-25, custom)"
   sodipodi:docname="drawing.svg"
   xmlns:inkscape="http://www.inkscape.org/namespaces/inkscape"
   xmlns:sodipodi="http://sodipodi.sourceforge.net/DTD/sodipodi-0.dtd"
   xmlns="http://www.w3.org/2000/svg"
   xmlns:svg="http://www.w3.org/2000/svg">
  <sodipodi:namedview
     id="namedview1"
     pagecolor="#ffffff"
     bordercolor="#999999"
     borderopacity="1"
     inkscape:showpageshadow="2"
     inkscape:pageopacity="0"
     inkscape:pagecheckerboard="0"
     inkscape:deskcolor="#d1d1d1"
     inkscape:document-units="mm"
     inkscape:zoom="1"
     inkscape:cx="593"
     inkscape:cy="372"
     inkscape:window-width="1910"
     inkscape:window-height="1040"
     inkscape:window-x="5"
     inkscape:window-y="35"
     inkscape:window-maximized="1"
     inkscape:current-layer="layer1" />
  <defs
     id="defs1">
    <rect
       x="220.89786"
       y="366.64154"
       width="103.90116"
       height="20.422119"
       id="rect22" />
    <inkscape:path-effect
       effect="spiro"
       id="path-effect22"
       is_visible="true"
       lpeversion="1" />
    <inkscape:path-effect
       effect="spiro"
       id="path-effect21"
       is_visible="true"
       lpeversion="1" />
    <inkscape:path-effect
       effect="bspline"
       id="path-effect16"
       is_visible="true"
       lpeversion="1.3"
       weight="33.333333"
       steps="2"
       helper_size="0"
       apply_no_weight="true"
       apply_with_weight="true"
       only_selected="false"
       uniform="false" />
    <inkscape:path-effect
       effect="bspline"
       id="path-effect15"
       is_visible="true"
       lpeversion="1.3"
       weight="33.333333"
       steps="2"
       helper_size="0"
       apply_no_weight="true"
       apply_with_weight="true"
       only_selected="false"
       uniform="false" />
    <inkscape:path-effect
       effect="bspline"
       id="path-effect14"
       is_visible="true"
       lpeversion="1.3"
       weight="33.333333"
       steps="2"
       helper_size="0"
       apply_no_weight="true"
       apply_with_weight="true"
       only_selected="false"
       uniform="false" />
    <inkscape:path-effect
       effect="bspline"
       id="path-effect13"
       is_visible="true"
       lpeversion="1.3"
       weight="33.333333"
       steps="2"
       helper_size="0"
       apply_no_weight="true"
       apply_with_weight="true"
       only_selected="false"
       uniform="false" />
    <inkscape:path-effect
       effect="bspline"
       id="path-effect12"
       is_visible="true"
       lpeversion="1.3"
       weight="33.333333"
       steps="2"
       helper_size="0"
       apply_no_weight="true"
       apply_with_weight="true"
       only_selected="false"
       uniform="false" />
    <inkscape:path-effect
       effect="bspline"
       id="path-effect11"
       is_visible="true"
       lpeversion="1.3"
       weight="33.333333"
       steps="2"
       helper_size="0"
       apply_no_weight="true"
       apply_with_weight="true"
       only_selected="false"
       uniform="false" />
    <inkscape:path-effect
       effect="bspline"
       id="path-effect10"
       is_visible="true"
       lpeversion="1.3"
       weight="33.333333"
       steps="2"
       helper_size="0"
       apply_no_weight="true"
       apply_with_weight="true"
       only_selected="false"
       uniform="false" />
    <inkscape:path-effect
       effect="bspline"
       id="path-effect9"
       is_visible="true"
       lpeversion="1.3"
       weight="33.333333"
       steps="2"
       helper_size="0"
       apply_no_weight="true"
       apply_with_weight="true"
       only_selected="false"
       uniform="false" />
    <inkscape:path-effect
       effect="bspline"
       id="path-effect8"
       is_visible="true"
       lpeversion="1.3"
       weight="33.333333"
       steps="2"
       helper_size="0"
       apply_no_weight="true"
       apply_with_weight="true"
       only_selected="false"
       uniform="false" />
    <inkscape:path-effect
       effect="bspline"
       id="path-effect7"
       is_visible="true"
       lpeversion="1.3"
       weight="33.333333"
       steps="2"
       helper_size="0"
       apply_no_weight="true"
       apply_with_weight="true"
       only_selected="false"
       uniform="false" />
    <inkscape:path-effect
       effect="bspline"
       id="path-effect6"
       is_visible="true"
       lpeversion="1.3"
       weight="33.333333"
       steps="2"
       helper_size="0"
       apply_no_weight="true"
       apply_with_weight="true"
       only_selected="false"
       uniform="false" />
  </defs>
  <g
     inkscape:label="Layer 1"
     inkscape:groupmode="layer"
     id="layer1">
    <path
       style="fill:none;stroke:#000000;stroke-width:0.264583"
       d="m 43.839391,95.608721 c 5.426301,-6.861189 13.255897,-11.782589 21.79139,-13.697275 9.146286,-2.0517 18.985074,-0.633285 27.30112,3.691919 8.316049,4.325204 15.078139,11.487876 19.153739,19.929055 2.04779,4.24129 3.44674,8.85267 3.57414,13.56072 0.11422,4.22106 -0.8189,8.4913 -2.85864,12.18858 -2.03973,3.69727 -5.20338,6.79766 -9.0276,8.58811 -3.824221,1.79045 -8.300433,2.22734 -12.348518,1.02593 -4.048086,-1.2014 -7.609869,-4.07195 -9.47813,-7.85876 -1.397264,-2.83214 -1.835393,-6.11305 -1.31572,-9.22807 0.519673,-3.11501 1.982852,-6.05423 4.090532,-8.40605 2.055771,-2.2939 4.705611,-4.02757 7.58123,-5.13164 2.875619,-1.10408 5.972543,-1.58842 9.052736,-1.56452 6.16039,0.0478 12.15335,2.09686 17.67631,4.82625 9.19616,4.54465 17.31125,10.95678 25.71113,16.84449 8.39988,5.88771 17.35255,11.37487 27.34917,13.67502 12.53742,2.88477 26.38961,0.25896 36.56307,-7.61565 5.08673,-3.9373 9.22372,-9.11193 11.85339,-14.98237 2.62966,-5.87044 3.73703,-12.42865 3.0812,-18.82764 -0.65583,-6.398991 -3.08471,-12.620288 -7.01717,-17.710768 -3.93246,-5.09048 -9.36536,-9.024699 -15.46096,-11.079155 -6.09561,-2.054457 -12.83244,-2.20657 -18.98667,-0.335037 -6.15423,1.871533 -11.68863,5.772176 -15.44151,10.996457 -5.19732,7.23505 -6.76161,16.409583 -7.70215,25.268103 -0.94054,8.85852 -1.44872,17.96154 -4.97311,26.14303 -3.74555,8.69487 -10.7949,15.79834 -19.16556,20.22123 -8.37066,4.4229 -17.99427,6.24349 -27.45454,5.87855 -18.920536,-0.72988 -36.558313,-9.87856 -51.880719,-21.00256 -3.419646,-2.48265 -6.865961,-5.1956 -8.815507,-8.94484 -1.805587,-3.47239 -2.151957,-7.58473 -1.465794,-11.43789 0.686163,-3.85315 2.349756,-7.47485 4.375025,-10.82386 6.068796,-10.035451 15.600273,-17.931811 26.589427,-22.028033 10.989155,-4.096222 23.36369,-4.365358 34.520548,-0.750793"
       id="path21"
       inkscape:path-effect="#path-effect22"
       inkscape:original-d="m 43.839391,95.608721 c 2.391154,-8.601091 13.455494,-12.606777 21.79139,-13.697275 20.324427,-2.65883 37.226549,5.044146 46.454859,23.620974 1.65142,3.32433 4.76948,9.43063 3.57414,13.56072 -3.13632,10.8365 -23.848277,19.39985 -33.712888,13.94386 -6.166863,-3.41082 -0.130516,-14.42205 2.774812,-17.63412 8.887838,-9.82622 23.848956,-6.8513 34.310276,-1.86991 17.99149,8.56704 30.46658,42.38506 53.0603,30.51951 19.5144,-10.24837 28.39713,-69.474006 -5.40865,-59.554163 -13.06833,3.834719 -6.82793,42.397063 -12.67526,51.411133 -19.73062,30.41611 -74.734439,24.00106 -98.500819,5.09722 -2.104655,-1.67405 -7.397515,-5.98745 -8.815507,-8.94484 -3.426764,-7.14691 -0.02646,-15.7422 2.909231,-22.26175 C 61.069431,84.331788 88.257884,95.024947 110.71125,87.021254"
       transform="matrix(1.451205,0,0,1.4975614,-45.059243,-83.383283)" />
    <text
       xml:space="preserve"
       transform="matrix(0.54855568,0,0,0.62169888,-6.9494195,-155.14881)"
       id="text22"
       style="font-size:12.4677px;letter-spacing:0.667911px;white-space:pre;shape-inside:url(#rect22);display:inline;fill:none;stroke:#000000"><tspan
         x="220.89844"
         y="379.17066"
         id="tspan2"><tspan
           style="font-family:'Source Han Serif CN';-inkscape-font-specification:'Source Han Serif CN'"
           id="tspan1">$ \beta$</tspan></tspan></text>
  </g>
</svg>
