<?xml version="1.0" encoding="UTF-8" standalone="no"?>
<!-- Created with Inkscape (http://www.inkscape.org/) -->

<svg
   width="240mm"
   height="120mm"
   viewBox="0 0 240 120"
   version="1.1"
   id="svg8"
   inkscape:version="1.3.2 (091e20ef0f, 2023-11-25, custom)"
   sodipodi:docname="first_figure.svg"
   xmlns:inkscape="http://www.inkscape.org/namespaces/inkscape"
   xmlns:sodipodi="http://sodipodi.sourceforge.net/DTD/sodipodi-0.dtd"
   xmlns="http://www.w3.org/2000/svg"
   xmlns:svg="http://www.w3.org/2000/svg"
   xmlns:rdf="http://www.w3.org/1999/02/22-rdf-syntax-ns#"
   xmlns:cc="http://creativecommons.org/ns#"
   xmlns:dc="http://purl.org/dc/elements/1.1/">
  <defs
     id="defs2">
    <inkscape:path-effect
       effect="spiro"
       id="path-effect1"
       is_visible="true"
       lpeversion="1" />
  </defs>
  <sodipodi:namedview
     id="base"
     pagecolor="#ffffff"
     bordercolor="#666666"
     borderopacity="1.0"
     inkscape:pageopacity="0.0"
     inkscape:pageshadow="2"
     inkscape:zoom="1.9887478"
     inkscape:cx="543.80954"
     inkscape:cy="242.8664"
     inkscape:document-units="mm"
     inkscape:current-layer="layer1"
     showgrid="false"
     showborder="true"
     width="200mm"
     showguides="true"
     inkscape:guide-bbox="true"
     inkscape:window-width="1910"
     inkscape:window-height="1040"
     inkscape:window-x="5"
     inkscape:window-y="35"
     inkscape:window-maximized="1"
     inkscape:showpageshadow="2"
     inkscape:pagecheckerboard="0"
     inkscape:deskcolor="#d1d1d1">
    <inkscape:grid
       type="xygrid"
       id="grid815"
       units="mm"
       spacingx="10"
       spacingy="10"
       empspacing="4"
       dotted="false"
       originx="0"
       originy="0"
       visible="false" />
  </sodipodi:namedview>
  <metadata
     id="metadata5">
    <rdf:RDF>
      <cc:Work
         rdf:about="">
        <dc:format>image/svg+xml</dc:format>
        <dc:type
           rdf:resource="http://purl.org/dc/dcmitype/StillImage" />
      </cc:Work>
    </rdf:RDF>
  </metadata>
  <g
     inkscape:label="Layer 1"
     inkscape:groupmode="layer"
     id="layer1"
     transform="translate(0,-177)">
    <path
       style="fill:none;stroke:#000000;stroke-width:0.264583"
       d="m 68.24541,218.91128 c 2.868488,-3.1009 6.644698,-5.35191 10.736756,-6.40019 4.092058,-1.04828 8.485434,-0.89012 12.491522,0.44969 4.535557,1.51689 8.619432,4.63858 10.797282,8.89642 1.08892,2.12892 1.69043,4.51467 1.66828,6.90581 -0.0221,2.39114 -0.67562,4.78291 -1.93421,6.81614 -1.25859,2.03322 -3.126319,3.69609 -5.320772,4.64605 -2.194453,0.94997 -4.708924,1.17134 -7.01832,0.55106 -2.309396,-0.62028 -4.392388,-2.09099 -5.691842,-4.09834 -1.299454,-2.00736 -1.787422,-4.53845 -1.260116,-6.87083 0.48263,-2.13477 1.744772,-3.99329 2.770066,-5.92693 1.267112,-2.38969 2.241992,-5.02042 4.178521,-6.90882 0.968265,-0.94419 2.178996,-1.67555 3.511071,-1.90926 0.666037,-0.11686 1.356427,-0.1075 2.013758,0.0512 0.65733,0.15868 1.280578,0.46845 1.788335,0.91504 0.852063,0.74942 1.344514,1.86379 1.433758,2.99502 0.08924,1.13122 -0.204947,2.2739 -0.731931,3.27885 -1.053969,2.0099 -2.953049,3.4219 -4.83711,4.68716 -1.884061,1.26526 -3.862369,2.49745 -5.217583,4.31788 -0.677607,0.91021 -1.184596,1.963 -1.361717,3.08384 -0.177121,1.12083 -0.0085,2.31153 0.570437,3.28745 0.370855,0.6251 0.901899,1.1512 1.518821,1.53551 0.616922,0.38431 1.318172,0.62799 2.03758,0.73161 1.438816,0.20723 2.924567,-0.14889 4.205358,-0.83643 1.280792,-0.68754 2.369776,-1.69185 3.305163,-2.80459 0.935387,-1.11274 1.726921,-2.33738 2.519293,-3.5561 0.79237,-1.21872 1.59128,-2.43921 2.53944,-3.54109 0.94815,-1.10188 2.05561,-2.08818 3.35191,-2.746 1.29631,-0.65782 2.7943,-0.97133 4.22509,-0.71446 0.7154,0.12843 1.40743,0.39838 2.00834,0.80726 0.60092,0.40888 1.10906,0.95782 1.4507,1.59935 0.55872,1.04915 0.65033,2.3021 0.44079,3.47214 -0.20955,1.17003 -0.70169,2.27081 -1.26003,3.32016 -0.55835,1.04935 -1.18737,2.06155 -1.70007,3.13394 -0.5127,1.0724 -0.91046,2.22017 -0.96768,3.40744 -0.0581,1.20661 0.242,2.41834 0.78708,3.49638 0.54508,1.07805 1.32942,2.02566 2.23525,2.82489 1.81167,1.59845 4.06883,2.59124 6.31849,3.47228 2.24966,0.88103 4.55403,1.68632 6.58822,2.98988 1.01709,0.65177 1.96146,1.42773 2.73757,2.35345 0.77612,0.92571 1.38131,2.00508 1.68948,3.17312 0.50557,1.91624 0.17266,4.02246 -0.82575,5.7344 -0.9984,1.71194 -2.63658,3.02376 -4.49689,3.707 -1.86031,0.68324 -3.92841,0.74847 -5.85162,0.27012 -1.92322,-0.47835 -3.69985,-1.48856 -5.15741,-2.83136 -2.91511,-2.68559 -4.48208,-6.60731 -4.91836,-10.54684 -0.43629,-3.93953 0.16961,-7.92339 1.05547,-11.78674 0.89491,-3.90282 2.14158,-7.86101 4.73821,-10.90902 1.95697,-2.29715 4.60594,-3.95887 7.46323,-4.92972 2.85729,-0.97086 5.91794,-1.26942 8.93035,-1.09038 6.02482,0.35808 11.76575,2.5721 17.36853,4.81609 5.60278,2.24399 11.28024,4.56915 17.2858,5.16906 3.00278,0.29996 6.06892,0.15602 8.97953,-0.64088 2.9106,-0.79691 5.66304,-2.26431 7.79818,-4.39688 3.26306,-3.25913 4.92131,-8.0545 4.36855,-12.63315 -0.55275,-4.57864 -3.30455,-8.84161 -7.24947,-11.23057"
       id="path1"
       inkscape:path-effect="#path-effect1"
       inkscape:original-d="m 68.24541,218.91128 c 4.727567,-2.3463 19.571917,-8.58849 23.228278,-5.9505 2.13097,1.53745 -6.422588,15.45961 -8.759698,16.84631 -1.87548,1.1128 1.535332,-4.12938 2.770066,-5.92693 3.186771,-4.63937 6.029113,-6.87536 11.491685,-7.85187 0.02238,-0.004 -12.385691,18.94745 -10.144146,21.6502 2.605651,3.14177 24.315305,-7.6219 27.161695,-9.52494 17.09223,-11.42751 -12.61868,2.21944 -3.48699,13.33368 12.03061,14.64255 39.25467,-11.08384 20.35609,18.31 -0.54299,0.84453 -18.83103,-9.79535 -20.19456,-15.45342 -1.00206,-4.15807 1.64685,-8.4967 4.73821,-10.90902 20.9346,-16.33611 48.14572,1.51528 67.82562,-1.07271 12.61421,-1.65882 5.03936,-20.66335 -2.88092,-23.86372" />
  </g>
</svg>
