<?xml version="1.0" encoding="UTF-8" standalone="no"?>
<!-- Created with Inkscape (http://www.inkscape.org/) -->

<svg
   width="240mm"
   height="120mm"
   viewBox="0 0 240 120"
   version="1.1"
   id="svg8"
   inkscape:version="1.3.2 (091e20ef0f, 2023-11-25, custom)"
   sodipodi:docname="hetlo.svg"
   xmlns:inkscape="http://www.inkscape.org/namespaces/inkscape"
   xmlns:sodipodi="http://sodipodi.sourceforge.net/DTD/sodipodi-0.dtd"
   xmlns="http://www.w3.org/2000/svg"
   xmlns:svg="http://www.w3.org/2000/svg"
   xmlns:rdf="http://www.w3.org/1999/02/22-rdf-syntax-ns#"
   xmlns:cc="http://creativecommons.org/ns#"
   xmlns:dc="http://purl.org/dc/elements/1.1/">
  <defs
     id="defs2">
    <inkscape:path-effect
       effect="spiro"
       id="path-effect4"
       is_visible="true"
       lpeversion="1" />
    <inkscape:path-effect
       effect="spiro"
       id="path-effect3"
       is_visible="true"
       lpeversion="1" />
  </defs>
  <sodipodi:namedview
     id="base"
     pagecolor="#ffffff"
     bordercolor="#666666"
     borderopacity="1.0"
     inkscape:pageopacity="0.0"
     inkscape:pageshadow="2"
     inkscape:zoom="0.99437388"
     inkscape:cx="284.09837"
     inkscape:cy="342.92936"
     inkscape:document-units="mm"
     inkscape:current-layer="layer1"
     showgrid="false"
     showborder="true"
     width="200mm"
     showguides="true"
     inkscape:guide-bbox="true"
     inkscape:window-width="1910"
     inkscape:window-height="1040"
     inkscape:window-x="5"
     inkscape:window-y="35"
     inkscape:window-maximized="1"
     inkscape:showpageshadow="2"
     inkscape:pagecheckerboard="0"
     inkscape:deskcolor="#d1d1d1">
    <inkscape:grid
       type="xygrid"
       id="grid815"
       units="mm"
       spacingx="10"
       spacingy="10"
       empspacing="4"
       dotted="false"
       originx="0"
       originy="0"
       visible="false" />
  </sodipodi:namedview>
  <metadata
     id="metadata5">
    <rdf:RDF>
      <cc:Work
         rdf:about="">
        <dc:format>image/svg+xml</dc:format>
        <dc:type
           rdf:resource="http://purl.org/dc/dcmitype/StillImage" />
        <dc:title />
      </cc:Work>
    </rdf:RDF>
  </metadata>
  <g
     inkscape:label="Layer 1"
     inkscape:groupmode="layer"
     id="layer1"
     transform="translate(0,-177)">
    <ellipse
       style="fill:none;stroke:#000000;stroke-width:0.264583"
       id="path1"
       cx="104.05627"
       cy="228.59779"
       rx="25.318344"
       ry="25.115879" />
    <ellipse
       style="fill:none;stroke:#000000;stroke-width:0.264583"
       id="path2"
       cx="164.31073"
       cy="243.00488"
       rx="25.4807"
       ry="24.320726" />
    <path
       style="fill:none;stroke:#000000;stroke-width:0.264583"
       d="m 19.453665,242.54486 c -2.12278,-4.11799 -2.935187,-8.89924 -2.291693,-13.48727 0.643494,-4.58802 2.739869,-8.9613 5.913598,-12.33643 3.173729,-3.37513 7.409919,-5.73628 11.949732,-6.66049 4.539813,-0.92421 9.361946,-0.40714 13.602601,1.45858 5.751576,2.53047 10.166345,7.31018 14.253392,12.08301 4.087046,4.77283 8.139362,9.77035 13.53503,12.9907 4.107723,2.45165 8.887246,3.76174 13.670966,3.75857 4.78372,-0.003 9.558637,-1.31827 13.675189,-3.75506 4.11656,-2.4368 7.56462,-5.9878 9.88922,-10.16873 2.32459,-4.18094 3.52096,-8.98065 3.442,-13.76372 -0.0397,-2.4065 -0.39985,-4.81894 -1.20571,-7.08685 -0.80586,-2.2679 -2.06646,-4.38974 -3.77856,-6.08134 -1.71211,-1.6916 -3.88486,-2.94031 -6.24164,-3.42856 -2.35678,-0.48826 -4.89225,-0.19107 -7.009155,0.95416 -2.176977,1.17773 -3.842047,3.21488 -4.71756,5.52999 -0.875512,2.31512 -0.983807,4.88884 -0.468462,7.30973 0.515344,2.42089 1.637276,4.69155 3.113392,6.67835 1.476115,1.98679 3.301055,3.69767 5.279485,5.18498 4.88191,3.67005 10.66949,5.97899 16.57665,7.5307 5.90716,1.5517 11.97498,2.38195 18.00414,3.35741 6.02917,0.97545 12.06989,2.10872 17.79622,4.23273 5.72634,2.12401 11.1649,5.29559 15.23578,9.84864 1.76755,1.9769 3.30171,4.29607 3.68853,6.91956 0.19341,1.31175 0.0863,2.67906 -0.40159,3.91195 -0.48793,1.23289 -1.36875,2.32308 -2.52186,2.97762 -1.23759,0.70249 -2.70048,0.87578 -4.0254,1.3951 -0.66246,0.25966 -1.29995,0.61379 -1.79424,1.12561 -0.4943,0.51181 -0.8355,1.19505 -0.83906,1.90657 -0.002,0.40146 0.10303,0.8015 0.29126,1.1561 0.18824,0.3546 0.45852,0.66384 0.77738,0.90778 0.63772,0.48786 1.45765,0.70505 2.26047,0.69169 0.80281,-0.0134 1.5905,-0.24548 2.31925,-0.58256 0.72874,-0.33708 1.4043,-0.77773 2.06845,-1.22895 14.81642,-10.06617 25.14993,-26.4925 27.80943,-44.20637"
       id="path3"
       inkscape:path-effect="#path-effect4"
       inkscape:original-d="m 19.453665,242.54486 c -0.109268,-8.18943 19.5402,-39.10955 29.174238,-31.02561 10.11955,8.49134 10.669404,24.39658 27.788422,25.07371 16.144954,0.6386 37.055495,-5.03376 40.677375,-23.92894 1.34618,-7.02299 -11.28924,-18.84373 -18.235065,-15.64259 -12.482372,5.7528 -4.585544,18.38821 3.206855,24.70305 20.41025,16.54015 47.40324,10.67698 67.61279,24.96948 3.76394,2.66192 1.63419,9.28169 0.76508,13.80913 -0.38399,2.00027 -7.96289,2.99113 -6.6587,4.42728 1.77597,1.95568 6.1733,1.05417 7.71681,0.94406 24.18213,-1.72505 48.17334,-44.20637 27.80943,-44.20637" />
  </g>
</svg>
