<?xml version="1.0" encoding="UTF-8" standalone="no"?>
<!-- Created with Inkscape (http://www.inkscape.org/) -->

<svg
   width="240mm"
   height="120mm"
   viewBox="0 0 240 120"
   version="1.1"
   id="svg8"
   inkscape:version="1.3.2 (091e20ef0f, 2023-11-25, custom)"
   sodipodi:docname="memory-visual.svg"
   xmlns:inkscape="http://www.inkscape.org/namespaces/inkscape"
   xmlns:sodipodi="http://sodipodi.sourceforge.net/DTD/sodipodi-0.dtd"
   xmlns="http://www.w3.org/2000/svg"
   xmlns:svg="http://www.w3.org/2000/svg"
   xmlns:rdf="http://www.w3.org/1999/02/22-rdf-syntax-ns#"
   xmlns:cc="http://creativecommons.org/ns#"
   xmlns:dc="http://purl.org/dc/elements/1.1/">
  <defs
     id="defs2">
    <inkscape:path-effect
       effect="spiro"
       id="path-effect1"
       is_visible="true"
       lpeversion="1" />
  </defs>
  <sodipodi:namedview
     id="base"
     pagecolor="#ffffff"
     bordercolor="#666666"
     borderopacity="1.0"
     inkscape:pageopacity="0.0"
     inkscape:pageshadow="2"
     inkscape:zoom="0.99437388"
     inkscape:cx="284.09837"
     inkscape:cy="182.02409"
     inkscape:document-units="mm"
     inkscape:current-layer="layer1"
     showgrid="false"
     showborder="true"
     width="200mm"
     showguides="true"
     inkscape:guide-bbox="true"
     inkscape:window-width="1910"
     inkscape:window-height="1160"
     inkscape:window-x="5"
     inkscape:window-y="35"
     inkscape:window-maximized="1"
     inkscape:showpageshadow="2"
     inkscape:pagecheckerboard="0"
     inkscape:deskcolor="#d1d1d1">
    <inkscape:grid
       type="xygrid"
       id="grid815"
       units="mm"
       spacingx="10"
       spacingy="10"
       empspacing="4"
       dotted="false"
       originx="0"
       originy="0"
       visible="false" />
  </sodipodi:namedview>
  <metadata
     id="metadata5">
    <rdf:RDF>
      <cc:Work
         rdf:about="">
        <dc:format>image/svg+xml</dc:format>
        <dc:type
           rdf:resource="http://purl.org/dc/dcmitype/StillImage" />
        <dc:title />
      </cc:Work>
    </rdf:RDF>
  </metadata>
  <g
     inkscape:label="Layer 1"
     inkscape:groupmode="layer"
     id="layer1"
     transform="translate(0,-177)">
    <path
       style="fill:none;stroke:#000000;stroke-width:0.264583"
       d="m 59.849641,253.84395 c -6.09624,-6.46338 -8.990423,-15.81166 -7.612623,-24.58897 1.377801,-8.7773 6.997064,-16.7892 14.780456,-21.07385 7.783391,-4.28466 17.558503,-4.74715 25.71166,-1.2165 8.153156,3.53064 14.503766,10.97621 16.704116,19.58422 1.72796,6.75995 0.99731,13.94727 2.57071,20.74486 0.78671,3.39879 2.18641,6.72412 4.52855,9.30967 1.17107,1.29278 2.57043,2.3874 4.14075,3.14686 1.57032,0.75946 3.31325,1.17853 5.05721,1.14281 2.61771,-0.0536 5.14025,-1.12609 7.26591,-2.65477 2.12565,-1.52868 3.89319,-3.49867 5.5441,-5.53085 1.65091,-2.03219 3.20697,-4.14699 5.00137,-6.05366 1.7944,-1.90668 3.85566,-3.61716 6.26212,-4.64879 3.78008,-1.62049 8.30318,-1.39281 11.90142,0.59909 3.59825,1.9919 6.19238,5.70413 6.82584,9.76784"
       id="path1"
       inkscape:path-effect="#path-effect1"
       inkscape:original-d="m 59.849641,253.84395 c -4.089239,-27.92992 23.750849,-44.30697 49.583609,-27.2951 10.51673,6.92568 6.50989,30.6518 16.29722,34.3442 20.18317,7.61436 43.02675,-17.06981 24.0735,-18.88807 -21.85034,-2.09619 -20.28795,21.86705 18.72726,10.36693" />
  </g>
</svg>
